<?xml version="1.0" encoding="iso-8859-1"?>
<!-- Uploaded to: SVG Repo, www.svgrepo.com, Generator: SVG Repo Mixer Tools -->
<svg height="800px" width="800px" version="1.1" id="Layer_1" xmlns="http://www.w3.org/2000/svg" xmlns:xlink="http://www.w3.org/1999/xlink" 
	 viewBox="0 0 511.98 511.98" xml:space="preserve">
<path style="fill:#965353;" d="M506.231,237.956l-102.792-53.357l-5.562-17.171c-0.188-0.547-0.406-1.078-0.672-1.594
	c-0.438-0.859-11.062-21.155-35.186-42.748c-22.078-19.78-60.325-44.623-117.058-50.623c-0.062-0.016-0.141-0.016-0.203-0.016
	l-66.403-5.672c-0.234-0.016-0.484-0.031-0.734-0.031L10.845,64.056c-3.155-0.015-6.155,1.297-8.233,3.672
	c-2.062,2.375-2.969,5.547-2.484,8.656l60.263,383.977c0.469,2.999,2.188,5.655,4.734,7.312c1.75,1.125,3.766,1.688,5.797,1.688
	c0.938,0,1.875-0.094,2.797-0.344c6.483-1.781,159.478-43.278,198.163-64.997c33.812-18.999,107.98-47.279,120.448-51.967h38.546
	c2.719,0,5.328-1.031,7.312-2.906l33.998-31.997c0.219-0.188,0.422-0.406,0.609-0.625l9.625-10.656
	c0.453-0.5,0.843-1.031,1.187-1.594l15.468-25.374c0.266-0.438,0.484-0.844,0.672-1.281l11.328-25.913
	C513.341,246.55,511.216,240.55,506.231,237.956z"/>
<path style="fill:#434A54;" d="M351.988,181.395c0,5.891-4.781,10.656-10.672,10.656s-10.672-4.766-10.672-10.656
	s4.781-10.671,10.672-10.671S351.988,175.505,351.988,181.395z"/>
<path style="fill:#965353;" d="M296.913,53.198c-4.031-5.859-9.953-9.438-17.141-10.375c-1.031-0.141-2.109-0.203-3.188-0.203
	c-20.78,0-46.998,26.796-52.045,32.155c-2.671,2.844-3.577,6.905-2.374,10.593c1.203,3.703,4.312,6.453,8.124,7.188l57.982,11.156
	c0.672,0.125,1.344,0.188,2.016,0.188c4.828,0,9.188-3.297,10.359-8.156C301.757,91.149,306.772,67.556,296.913,53.198z"/>
<polygon style="opacity:0.2;enable-background:new    ;" points="395.502,309.368 460.718,327.96 479.249,309.368 "/>
<path style="fill:#434A54;" d="M506.231,237.956l-15.843-8.219c0,0-13.374,15.062-4.172,22.984
	c9.188,7.922,21.483,6.703,21.483,6.703l3.375-7.719C513.341,246.55,511.216,240.55,506.231,237.956z"/>
<polygon style="opacity:0.2;enable-background:new    ;" points="255.992,352.052 339.129,373.084 392.33,352.052 "/>
<polygon style="opacity:0.2;enable-background:new    ;" points="183.886,67.244 224.54,74.775 228.196,71.025 "/>
</svg>